<?xml version="1.0" encoding="UTF-8" standalone="no"?>
<svg width="348px" height="79px" viewBox="0 0 348 79" version="1.1" xmlns="http://www.w3.org/2000/svg" xmlns:xlink="http://www.w3.org/1999/xlink">
    <!-- Generator: Sketch 42 (36781) - http://www.bohemiancoding.com/sketch -->
    <title>Logo.WebUI</title>
    <desc>Created with Sketch.</desc>
    <defs></defs>
    <g id="Page-1" stroke="none" stroke-width="1" fill="none" fill-rule="evenodd">
        <g id="Desktop" transform="translate(-390.000000, -290.000000)">
            <g id="Logo.WebUI" transform="translate(390.000000, 289.000000)">
                <g id="Logo" transform="translate(0.000000, 0.850006)">
                    <path d="M102.274899,59.6305804 C103.271168,60.6608304 103.769295,61.9519685 103.769295,63.5040335 C103.769295,65.0293388 103.271168,66.2937176 102.274899,67.2972079 C101.278629,68.3006982 99.8650255,68.8024358 98.0340444,68.8024358 C96.2838418,68.8024358 94.8971637,68.307388 93.8739683,67.3172776 C92.8507729,66.3271671 92.3391829,65.0560985 92.3391829,63.5040335 C92.3391829,61.9519685 92.8373101,60.6608304 93.8335792,59.6305804 C94.8298484,58.6003303 96.2299894,58.085213 98.0340444,58.085213 C99.8650255,58.085213 101.278629,58.6003303 102.274899,59.6305804 Z" id="." fill="#CC63DA"></path>
                    <path d="M50.6667008,24.3139919 C56.1795911,28.6352562 60.58724,37.5519434 62.7977226,42.4215251 C64.7285658,46.8863963 68.0309735,55.1242142 68.1241866,61.7431899 C71.8393952,63.9103496 75.8475594,64.7197707 79.975569,63.0487078 C88.7908669,59.0016024 86.633649,50.07186 86.633649,50.07186 C85.0395892,44.9396331 81.3462183,40.6852119 76.4334704,38.3221989 C84.8359674,33.1915136 85.1156068,24.2748264 85.6615693,21.1676938 C85.9545248,18.0997268 82.5056394,-8.83310736 66.246608,3.50403673 C59.1270865,8.83413407 53.719301,16.0572691 50.6667008,24.3139919 Z M75.3415453,24.0398332 C73.2775405,28.6352562 69.0030531,31.3376782 66.0202333,29.9799396 C63.0374135,28.622201 62.1585469,23.7656744 64.3690295,19.1702514 C66.579512,14.5748285 70.7075216,11.8724064 73.6903415,13.230145 C76.6731613,14.5878836 77.4055501,19.4444102 75.3415453,24.0398332 L75.3415453,24.0398332 Z" id="Shape" fill="#F37047"></path>
                    <path d="M42.2642039,51.2207157 C40.0670375,46.1944718 36.285248,36.7425223 37.030953,29.718836 C28.5390381,26.5707489 19.3370426,25.7317357 10.398633,27.2905727 C-10.6808483,30.9329677 7.36254848,51.6123711 9.985832,53.2312133 C12.6091155,54.8500555 19.9063712,60.8032171 29.6937488,58.100795 C27.9100755,63.2244121 28.5138845,68.8577238 31.3449527,73.5059062 C34.6847537,78.0201536 40.7776974,79.649298 45.9927287,77.4224598 C49.7852978,75.7517465 52.5121673,72.3770939 53.3033005,68.3752208 C48.269792,63.8972945 44.274944,55.7900283 42.2642039,51.2207157 L42.2642039,51.2207157 Z M30.8256224,45.1239472 C29.7203811,48.2310797 24.8999312,49.3146596 19.9330035,47.7349829 C14.9660758,46.1553063 12.0897853,42.0820905 13.1950266,39.0402338 C14.3002678,35.9983771 19.1207178,34.8495213 24.0876454,36.429198 C29.0545731,38.0088746 31.9308637,42.0168146 30.8256224,45.1239472 L30.8256224,45.1239472 Z" id="Shape" fill="#46B2E6"></path>
                    <ellipse id="Oval" fill="#67BC6B" transform="translate(37.737142, 13.896054) rotate(-23.530000) translate(-37.737142, -13.896054) " cx="37.7371423" cy="13.8960542" rx="9.7873776" ry="9.59555651"></ellipse>
                    <ellipse id="Oval" fill="#FFCC2A" transform="translate(52.490446, 46.869562) rotate(-23.530000) translate(-52.490446, -46.869562) " cx="52.490446" cy="46.8695621" rx="5.7925296" ry="21.3452176"></ellipse>
                </g>
                <path d="M98.3203125,58.5 C100.179697,58.5 101.615229,59.0263619 102.626953,60.0791016 C103.638677,61.1318412 104.144531,62.4511639 104.144531,64.0371094 C104.144531,65.5957109 103.638677,66.8876902 102.626953,67.9130859 C101.615229,68.9384817 100.179697,69.4511719 98.3203125,69.4511719 C96.5429599,69.4511719 95.1347708,68.9453176 94.0957031,67.9335938 C93.0566354,66.9218699 92.5371094,65.6230548 92.5371094,64.0371094 C92.5371094,62.4511639 93.0429637,61.1318412 94.0546875,60.0791016 C95.0664113,59.0263619 96.4882721,58.5 98.3203125,58.5 Z M163.371094,54.234375 L172.558594,9.28125 L182.853516,9.28125 L169.072266,69 L159.146484,69 L147.785156,25.4003906 L136.177734,69 L126.210938,69 L112.429688,9.28125 L122.724609,9.28125 L131.994141,54.1523438 L143.396484,9.28125 L152.091797,9.28125 L163.371094,54.234375 Z M207.75,69.8203125 C201.433562,69.8203125 196.313496,67.8310746 192.389648,63.8525391 C188.465801,59.8740035 186.503906,54.576205 186.503906,47.9589844 L186.503906,46.7285156 C186.503906,42.298806 187.35839,38.3408377 189.067383,34.8544922 C190.776376,31.3681466 193.175766,28.6543066 196.265625,26.7128906 C199.355484,24.7714747 202.800762,23.8007812 206.601562,23.8007812 C212.644561,23.8007812 217.31346,25.7284963 220.608398,29.5839844 C223.903337,33.4394724 225.550781,38.894496 225.550781,45.9492188 L225.550781,49.96875 L196.552734,49.96875 C196.853517,53.6328308 198.077138,56.5312393 200.223633,58.6640625 C202.370128,60.7968857 205.070296,61.8632812 208.324219,61.8632812 C212.890648,61.8632812 216.609361,60.0175966 219.480469,56.3261719 L224.853516,61.453125 C223.076163,64.105482 220.704116,66.1630786 217.737305,67.6259766 C214.770493,69.0888745 211.441425,69.8203125 207.75,69.8203125 Z M206.560547,31.7988281 C203.826158,31.7988281 201.618172,32.7558498 199.936523,34.6699219 C198.254874,36.5839939 197.181643,39.2499829 196.716797,42.6679688 L215.707031,42.6679688 L215.707031,41.9296875 C215.48828,38.5937333 214.599617,36.0712976 213.041016,34.3623047 C211.482414,32.6533118 209.322279,31.7988281 206.560547,31.7988281 Z M272.226562,47.2617188 C272.226562,54.1523782 270.688492,59.6347453 267.612305,63.7089844 C264.536117,67.7832235 260.304714,69.8203125 254.917969,69.8203125 C249.72263,69.8203125 245.675796,67.9472844 242.777344,64.2011719 L242.285156,69 L233.261719,69 L233.261719,6 L243.228516,6 L243.228516,28.8867188 C246.099624,25.4960768 249.968726,23.8007812 254.835938,23.8007812 C260.250027,23.8007812 264.501938,25.8105268 267.591797,29.8300781 C270.681656,33.8496295 272.226562,39.4687139 272.226562,46.6875 L272.226562,47.2617188 Z M262.259766,46.4003906 C262.259766,41.5878666 261.412118,37.9785277 259.716797,35.5722656 C258.021476,33.1660036 255.560563,31.9628906 252.333984,31.9628906 C248.01365,31.9628906 244.978524,33.8495905 243.228516,37.6230469 L243.228516,55.9160156 C245.005868,59.7715037 248.068338,61.6992188 252.416016,61.6992188 C255.533219,61.6992188 257.939445,60.537121 259.634766,58.2128906 C261.330087,55.8886603 262.205078,52.3750235 262.259766,47.671875 L262.259766,46.4003906 Z M325.21875,9.28125 L325.21875,49.1894531 C325.21875,55.5332348 323.188497,60.5575987 319.12793,64.2626953 C315.067363,67.967792 309.66019,69.8203125 302.90625,69.8203125 C296.070278,69.8203125 290.642598,67.9951354 286.623047,64.3447266 C282.603496,60.6943177 280.59375,55.6289387 280.59375,49.1484375 L280.59375,9.28125 L290.929688,9.28125 L290.929688,49.2304688 C290.929688,53.2226762 291.941396,56.2714738 293.964844,58.3769531 C295.988291,60.4824324 298.96873,61.5351562 302.90625,61.5351562 C310.890665,61.5351562 314.882812,57.3242609 314.882812,48.9023438 L314.882812,9.28125 L325.21875,9.28125 Z M347.244141,69 L336.908203,69 L336.908203,9.28125 L347.244141,9.28125 L347.244141,69 Z" id=".WebUI" fill="#FFFFFF"></path>
            </g>
        </g>
    </g>
</svg>